<svg version="1.1" viewBox="0.0 0.0 435.7716535433071 117.07349081364829" fill="none" stroke="none" stroke-linecap="square" stroke-miterlimit="10" xmlns:xlink="http://www.w3.org/1999/xlink" xmlns="http://www.w3.org/2000/svg"><clipPath id="p.0"><path d="m0 0l435.77167 0l0 117.073494l-435.77167 0l0 -117.073494z" clip-rule="nonzero"/></clipPath><g clip-path="url(#p.0)"><path fill="currentColor" fill-opacity="0.0" d="m0 0l435.77167 0l0 117.073494l-435.77167 0z" fill-rule="evenodd"/><path fill="currentColor" fill-opacity="0.0" d="m-8.944881 0.8136483l441.44882 0l0 117.07086l-441.44882 0z" fill-rule="evenodd"/><path fill="currentColor" d="m45.43012 102.45802q-11.9375 0 -20.046875 -4.484375q-8.09375 -4.484375 -11.21875 -12.78125q-3.109375 -8.296875 -0.828125 -19.046875q3.078125 -14.500004 10.96875 -25.796879q7.90625 -11.296875 18.734375 -17.53125q10.828125 -6.25 22.484371 -6.25q11.34375 0 16.171875 6.078125q4.84375 6.0625 2.796875 15.734375q-1.34375 6.3125 -4.609375 10.421875q-3.265625 4.109375 -8.078125 4.109375q-3.5 0 -5.46875 -1.90625q-1.953125 -1.921875 -1.203125 -5.40625q0.21875 -1.0 1.15625 -3.484375q1.125 -2.734375 1.46875 -4.296875q1.34375 -6.3125 -5.499996 -6.3125q-5.765625 0 -11.984375 3.875q-6.203125 3.859375 -11.25 11.53125q-5.03125 7.671875 -7.296875 18.343754q-2.25 10.59375 2.25 16.140625q4.5 5.53125 16.125 5.53125q6.0 0 12.53125 -1.53125q6.546871 -1.546875 14.921871 -4.765625q1.90625 -0.703125 3.21875 -0.703125q2.84375 0 3.75 2.046875q0.921875 2.03125 0.390625 4.5q-1.453125 6.890625 -9.375 10.078125q-7.640625 3.0625 -15.468746 4.484375q-7.828125 1.421875 -14.640625 1.421875zm38.79347 0q-7.078125 0 -10.21875 -5.140625q-3.125 -5.140625 -1.46875 -12.9375q1.734375 -8.078125 6.984375 -15.28125q5.25 -7.203129 12.4375 -11.625004q7.203125 -4.421875 14.390625 -4.421875q3.1875 0 4.203125 1.515625q1.015625 1.5 0.796875 2.09375q0.15625 -0.25 2.546875 -0.25q7.171875 0 5.953125 5.78125q-0.46875 2.1875038 -3.578125 9.921879q-4.5 10.890625 -5.390625 15.015625q-0.125 0.65625 -0.09375 0.71875q0.03125 0.046875 0.0625 0.046875q1.15625 0 3.9375 -2.109375q2.78125 -2.125 8.234375 -7.328125q2.015625 -1.890625 4.25 -1.890625q2.578125 0 3.421875 2.046875q0.859375 2.046875 0.3125 4.6875q-0.953125 4.453125 -3.640625 6.96875q-5.109375 5.03125 -10.59375 8.609375q-5.46875 3.578125 -10.1875 3.578125q-4.0 0 -6.703125 -2.6875q-2.6875 -2.6875 -2.484375 -3.390625q-4.65625 6.078125 -13.171875 6.078125zm5.515625 -13.703125q1.265625 0 3.296875 -2.046875q2.03125 -2.0625 3.625 -5.84375l6.125 -14.828125q-0.375 0.015625 -4.0 2.65625q-3.609375 2.625 -6.453125 7.109375q-2.84375 4.484375 -3.90625 9.5q-0.453125 2.203125 -0.078125 2.828125q0.390625 0.625 1.390625 0.625zm73.40123 -22.359375q3.078125 0 4.84375 2.234375q1.765625 2.234375 1.09375 5.359375q-0.328125 1.578125 -1.40625 3.328125q-2.5 3.890625 -6.21875 6.59375q-3.703125 2.703125 -7.71875 2.703125q-3.671875 0 -5.71875 -2.671875q-2.046875 -2.6875 -1.140625 -6.84375q0.390625 -1.90625 1.0625 -4.140625q0.484375 -1.453125 0.59375 -1.90625q0.09375 0.03125 0.609375 -0.09375q0.515625 -0.140625 0.515625 0.96875q-0.46875 0 -3.109375 2.84375q-2.640625 2.828125 -5.96875 7.96875q-3.328125 5.140625 -5.953125 10.859375q-2.203125 4.96875 -4.3125 6.921875q-2.109375 1.9375 -5.96875 1.9375q-5.328125 0 -6.171875 -4.859375q-0.84375 -4.859375 1.03125 -13.6875q2.71875 -12.75 8.78125 -24.234379q1.71875 -3.28125 4.453125 -4.859375q2.734375 -1.578125 6.8125 -1.578125q2.5625 0 4.015625 1.046875q1.46875 1.046875 0.890625 3.671875q-0.375 1.78125 -3.046875 7.343754q-1.75 3.78125 -2.90625 6.609375q-1.15625 2.8125 -4.34375 6.359375q3.328125 -9.46875 8.546875 -14.843754q5.234375 -5.390625 9.8125 -7.78125q4.578125 -2.40625 8.15625 -2.40625q3.8125 0 5.5 2.359375q1.703125 2.359375 0.875 6.28125q-0.421875 2.015625 -3.609375 5.937504l0 -1.421875zm16.040604 11.96875q-3.5 0.265625 -5.15625 -2.09375q-1.640625 -2.359375 -0.859375 -6.0q0.71875 -3.296875 2.796875 -4.953125q2.078125 -1.6718788 5.203125 -1.9062538l20.078125 -1.921875q3.59375 -0.265625 5.171875 1.9375q1.59375 2.2031288 0.828125 5.765629q-1.390625 6.625 -7.96875 7.234375l-20.09375 1.9375zm123.57674 -1.796875q2.578125 0 3.421875 2.046875q0.859375 2.046875 0.3125 4.671875q-0.921875 4.359375 -3.640625 6.984375q-5.984375 5.75 -11.671875 8.96875q-5.6875 3.21875 -12.65625 3.21875q-7.015625 0 -11.171875 -3.8125q-4.15625 -3.828125 -6.5 -12.5625q-1.75 -6.421875 -2.8125 -9.265625q-1.0625 -2.859375 -2.140625 -3.8125q-1.0625 -0.96875 -1.4375 -1.015625q-0.234375 0.578125 -4.3125 11.21875q-1.8125 4.8125 -2.234375 5.875q-2.359375 6.296875 -6.390625 9.84375q-4.015625 3.53125 -10.625 3.53125q-7.203125 0 -11.875 -4.28125q-4.65625 -4.296875 -6.0 -11.578125q-1.34375 -7.296875 0.5625 -16.328125q3.515625 -16.515629 11.859375 -28.578129q8.359375 -12.078125 20.234375 -18.5q11.890625 -6.4375 25.640625 -6.4375q9.6875 0 15.875 3.0625q6.203125 3.0625 8.4375 8.59375q2.25 5.515625 0.8125 12.265625q-1.21875 5.765625 -5.09375 11.234375q-3.859375 5.453125 -10.09375 9.59375q-6.21875 4.140629 -10.0625 4.281254q0.921875 -0.5625 3.125 2.671875q2.203125 3.234375 3.640625 8.953125q1.375 5.359375 3.015625 7.5q1.640625 2.125 4.109375 2.125q2.484375 0 5.375 -1.859375q2.90625 -1.859375 8.046875 -6.71875q2.015625 -1.890625 4.25 -1.890625zm-65.765625 -4.828125q-1.5 0 -2.84375 -2.375q-1.328125 -2.375 -0.765625 -5.046875q0.65625 -3.0156288 2.984375 -4.781254q2.328125 -1.78125 4.921875 -1.78125l1.015625 0q3.0625 -8.140625 5.875 -15.0q3.078125 -7.46875 11.234375 -7.46875q7.9375 0 6.375 7.296875q-0.25 1.21875 -0.53125 1.953125l-5.125 13.046875q1.75 -0.09375 6.109375 -2.125q4.375 -2.03125 7.453125 -5.609375q3.078125 -3.59375 4.03125 -8.09375q1.0625 -4.984375 -1.671875 -7.75q-2.71875 -2.78125 -9.84375 -2.78125q-8.875 0 -16.484375 4.40625q-7.59375 4.390625 -13.25 13.203125q-5.65625 8.796875 -8.375 21.609379q-1.234375 5.859375 -0.953125 9.90625q0.28125 4.03125 1.203125 5.546875q0.9375 1.515625 1.453125 1.515625q0.34375 0 1.015625 -0.765625q0.671875 -0.78125 1.609375 -3.234375l4.5625 -11.671875zm79.5737 -20.843754q-4.9375 0 -7.1875 -2.578125q-2.234375 -2.59375 -1.328125 -6.9375q0.875 -4.109375 4.5625 -6.78125q3.703125 -2.671875 8.28125 -2.671875q4.34375 0 6.875 2.390625q2.53125 2.375 1.625 6.640625q-0.96875 4.578125 -4.5 7.265625q-3.53125 2.671875 -8.328125 2.671875zm-11.734375 51.562504q-7.578125 0 -9.84375 -5.3125q-2.265625 -5.328125 -0.578125 -13.234375q0.953125 -4.46875 3.53125 -11.359375q2.59375 -6.890625 5.59375 -12.828129q1.75 -3.546875 3.90625 -5.015625q2.171875 -1.46875 5.953125 -1.46875q7.359375 0 6.140625 5.6875q-0.53125 2.5625 -4.28125 11.484379q-4.484375 10.390625 -5.25 13.953125q-0.5 2.390625 -0.34375 2.96875q0.171875 0.5625 0.484375 0.5625q1.046875 0 3.828125 -2.15625q2.796875 -2.15625 8.15625 -7.28125q2.015625 -1.890625 4.25 -1.890625q2.578125 0 3.421875 2.046875q0.859375 2.046875 0.3125 4.6875q-0.953125 4.453125 -3.671875 6.984375q-12.546875 12.171875 -21.609375 12.171875zm52.834717 -25.890625q2.578125 0 3.4375 2.046875q0.859375 2.046875 0.3125 4.6875q-0.953125 4.453125 -3.671875 6.984375q-5.375 5.234375 -11.265625 8.703125q-5.875 3.46875 -12.5625 3.46875q-9.921875 0 -12.671875 -8.625q-2.734375 -8.625 -0.03125 -21.359375q2.53125 -11.875004 8.8125 -27.046879q6.296875 -15.1875 14.875 -26.4375q8.578125 -11.25 17.71875 -11.25q5.953125 0 8.046875 5.171875q2.09375 5.171875 0.28125 13.75q-2.515625 11.78125 -12.203125 27.09375q-9.6875 15.296879 -23.296875 29.671879q-0.09375 2.515625 0.59375 3.5q0.6875 0.96875 2.140625 0.96875q3.34375 0 6.46875 -2.046875q3.140625 -2.046875 8.78125 -7.390625q2.0 -1.890625 4.234375 -1.890625zm0.8125 -55.32813q-1.046875 0 -5.203125 7.40625q-4.15625 7.390625 -8.71875 19.0625q-4.5625 11.671875 -5.125 14.0625q3.6875 -4.5 10.0 -15.5625q6.3125 -11.078125 8.234375 -20.09375q1.03125 -4.875 0.8125 -4.875zm30.48349 55.32813q2.578125 0 3.4375 2.046875q0.859375 2.046875 0.3125 4.6875q-0.953125 4.453125 -3.671875 6.984375q-5.375 5.234375 -11.265625 8.703125q-5.875 3.46875 -12.5625 3.46875q-9.921875 0 -12.671875 -8.625q-2.734375 -8.625 -0.03125 -21.359375q2.53125 -11.875004 8.8125 -27.046879q6.296875 -15.1875 14.875 -26.4375q8.578125 -11.25 17.71875 -11.25q5.953125 0 8.046875 5.171875q2.09375 5.171875 0.28125 13.75q-2.515625 11.78125 -12.203125 27.09375q-9.6875 15.296879 -23.296875 29.671879q-0.09375 2.515625 0.59375 3.5q0.6875 0.96875 2.140625 0.96875q3.34375 0 6.46875 -2.046875q3.140625 -2.046875 8.78125 -7.390625q2.0 -1.890625 4.234375 -1.890625zm0.8125 -55.32813q-1.046875 0 -5.203125 7.40625q-4.15625 7.390625 -8.71875 19.0625q-4.5625 11.671875 -5.125 14.0625q3.6875 -4.5 10.0 -15.5625q6.3125 -11.078125 8.234375 -20.09375q1.03125 -4.875 0.8125 -4.875zm5.67099 81.21875q-6.390625 0 -10.296875 -3.28125q-3.90625 -3.296875 -5.078125 -8.4375q-1.15625 -5.15625 0.0625 -10.875q1.625 -7.671875 5.8125 -13.734375q4.1875 -6.062504 10.0 -9.515629q5.8125 -3.46875 12.21875 -3.46875q6.375 0 10.34375 3.28125q3.96875 3.265625 5.125 8.421879q1.15625 5.15625 -0.046875 10.875q-1.640625 7.6875 -5.875 13.75q-4.234375 6.046875 -10.09375 9.515625q-5.859375 3.46875 -12.171875 3.46875zm3.28125 -14.375q2.34375 0 4.875 -3.0q2.53125 -3.0 3.890625 -9.34375q0.96875 -4.59375 0.0625 -6.40625q-0.90625 -1.828125 -2.359375 -1.828125q-2.53125 0 -5.078125 2.96875q-2.53125 2.953125 -3.890625 9.375q-1.015625 4.75 -0.09375 6.5q0.921875 1.734375 2.59375 1.734375z" fill-rule="nonzero"/></g></svg>